<svg width="64" height="64" viewBox="0 0 64 64" fill="none" xmlns="http://www.w3.org/2000/svg">
<path d="M46.206 13.102C46.206 14.467 45.675 15.75 44.709 16.715L31.165 30.26C30.235 31.19 30.235 32.81 31.165 33.739L44.709 47.285C45.674 48.249 46.206 49.532 46.206 50.898C46.206 52.263 45.675 53.546 44.709 54.511C43.744 55.477 42.46 56.008 41.095 56.008C39.731 56.008 38.447 55.477 37.482 54.511L19.794 36.821C18.505 35.535 17.795 33.822 17.795 32C17.795 30.178 18.505 28.465 19.794 27.177L37.482 9.488C38.447 8.522 39.731 7.991 41.095 7.991C42.46 7.991 43.744 8.522 44.709 9.488C45.675 10.452 46.206 11.737 46.206 13.102ZM28.444 32C28.444 30.809 28.908 29.688 29.751 28.846L43.295 15.301C44.472 14.124 44.47 12.076 43.295 10.902C42.082 9.689 40.108 9.689 38.896 10.902L21.207 28.591C20.296 29.502 19.794 30.712 19.794 32C19.794 33.287 20.296 34.497 21.206 35.406L38.895 53.098C40.108 54.311 42.082 54.311 43.294 53.098C44.47 51.924 44.47 49.872 43.294 48.701L29.75 35.154C28.908 34.312 28.444 33.192 28.444 32Z" fill="white"/>
</svg>
