<svg width="50" height="50" viewBox="0 0 50 50" fill="none" xmlns="http://www.w3.org/2000/svg">
<g clip-path="url(#clip0_1_2)">
<path d="M39.156 2.4C38.856 0.3 33.856 0 30.956 0C28.056 0 25.056 0.3 21.156 2.4C17.256 4.5 15.956 8.1 15.356 10.3C14.956 12.6 15.556 19 15.556 19.2C15.556 19.4 12.556 19.4 11.356 19.4C10.156 19.5 9.956 20 9.856 20.3C9.756 20.6 10.356 29 10.356 29L10.756 32C11.456 32.4 14.656 32.2 15.156 32.3C15.756 32.4 15.956 33.2 15.956 35.3C16.056 37.4 16.356 45.5 16.356 47.2C16.456 48.9 17.156 48.9 18.956 48.9C20.756 48.9 27.756 49.2 28.156 49.2C28.556 49.2 28.956 48.7 28.956 47.1C28.956 45.5 29.456 32.4 29.556 32.1C29.656 31.8 30.656 32.1 31.556 32.1C32.456 32.1 36.756 31.8 37.556 31.7C38.356 31.6 38.656 23.7 38.656 21.2C38.656 18.7 36.956 18.5 35.956 18.5C34.856 18.4 29.856 18.7 29.556 18.4C29.256 18.2 30.556 14.3 32.156 13.5C33.856 12.7 37.956 13.1 38.456 13.2C38.956 13.3 39.356 12.1 39.356 11.2C39.356 10.2 39.356 4.5 39.156 2.4ZM35.556 19.3C35.756 19.3 36.456 20.1 36.656 20.4C36.856 20.7 36.556 21.3 36.456 21.4C36.356 21.5 35.556 20 35.456 19.8C35.356 19.6 35.456 19.3 35.556 19.3ZM38.156 9.8C37.656 9.9 33.256 9.4 30.656 10.3C28.156 11.2 26.756 13.8 26.556 15.2C26.356 16.6 26.356 19.2 26.756 19.2C27.156 19.2 30.756 19.3 32.056 19.3C33.456 19.4 34.156 19.3 34.256 19.5C34.356 19.7 36.256 22.4 36.256 22.6C36.256 22.8 36.056 23.7 35.956 23.6C35.856 23.5 34.056 20.4 33.956 20.5C33.856 20.6 33.456 21.1 33.756 21.4C33.956 21.7 35.856 24.6 35.856 24.7C35.856 24.8 35.556 25.5 35.456 25.3C35.356 25.1 33.156 21.4 33.056 21.5C32.956 21.6 32.556 22 32.756 22.3C32.956 22.6 35.256 25.9 35.256 26C35.256 26.2 35.256 27.5 35.056 27.5C34.856 27.4 32.756 23.5 32.456 23.5C32.056 23.5 31.956 24.2 32.156 24.4C32.356 24.6 34.856 28.3 34.856 28.4C34.856 28.5 34.256 28.8 34.056 28.7C33.856 28.5 31.856 24.7 31.656 24.7C31.456 24.7 30.856 25 31.056 25.2C31.256 25.5 33.156 28.6 33.056 28.7C32.956 28.7 32.556 28.9 32.256 28.5C31.956 28.2 30.356 25.4 30.156 25.5C29.956 25.6 29.556 26 29.756 26.2C29.956 26.5 31.756 28.6 31.556 28.7C31.356 28.8 30.356 28.7 30.256 28.6C30.156 28.5 29.156 26.5 28.956 26.5C28.756 26.5 28.456 26.9 28.556 27.1C28.656 27.3 29.456 28.6 29.356 28.6C29.256 28.6 27.056 28.5 26.956 28.8C26.856 29.1 27.056 30.9 26.956 30.9C26.856 30.8 25.856 28.8 25.656 28.8C25.456 28.8 25.256 29.4 25.356 29.6C25.456 29.9 27.056 31.7 27.056 31.9C27.156 32.1 27.156 33.6 26.956 33.4C26.856 33.2 25.356 30.5 25.256 30.6C25.156 30.7 24.856 31.3 24.956 31.5C25.056 31.7 27.056 34.5 27.056 34.7C27.056 34.9 27.156 36.8 27.056 36.7C26.956 36.5 24.756 32.5 24.656 32.5C24.456 32.5 24.356 33.4 24.456 33.7C24.556 34 27.056 37.7 27.056 37.9C27.056 38.1 27.156 39.1 26.956 39C26.856 38.9 24.256 34.1 24.056 34.2C23.956 34.3 23.856 35 23.856 35.3C23.956 35.6 26.856 40.1 26.956 40.2C27.056 40.3 26.956 42.3 26.856 42.2C26.756 42.1 23.756 36.9 23.556 36.9C23.356 36.9 23.256 37.8 23.356 38.1C23.456 38.3 26.856 43.1 26.856 43.3C26.856 43.6 26.956 44.8 26.856 44.7C26.756 44.6 23.156 38.8 23.056 38.8C22.956 38.8 22.756 39.6 22.756 39.8C22.856 40 26.756 45.9 26.756 46.1C26.756 46.3 26.756 46.5 26.456 46.5C26.256 46.5 25.956 46.5 25.756 46.3C25.556 46.1 22.256 40.7 22.056 40.8C21.856 40.9 21.756 41.7 21.856 42C21.956 42.3 25.356 46.6 25.256 46.6C25.156 46.7 20.556 46.3 20.256 46.3C19.856 46.3 19.556 46.2 19.556 46.2C19.556 46.2 19.756 46 19.256 45.5C18.856 45 18.156 44.3 17.956 44.5C17.656 44.7 17.756 45 17.956 45.2C18.156 45.4 18.856 45.9 18.756 46C18.656 46.1 16.856 46 16.756 45.8C16.656 45.6 16.656 38.4 16.556 35.9C16.456 33.4 16.356 29.8 15.856 29.4C15.256 29 11.156 28.9 10.956 28.7C10.756 28.5 10.256 20.5 10.556 20.4C10.856 20.3 14.756 20.5 15.356 20.1C16.056 19.7 16.156 19 16.056 18.1C15.956 17.2 15.356 10.9 16.556 8.5C17.756 6.1 20.056 3.8 23.656 2.3C27.256 0.9 31.656 1 34.756 1.4C37.856 1.8 38.156 2.4 38.156 3.8C38.556 5.2 38.556 9.7 38.156 9.8ZM17.356 20.1C17.156 20.1 17.156 20.9 17.156 21.1C17.156 21.4 15.556 21.2 15.156 21.2C14.756 21.2 14.356 21.3 14.456 21.6C14.456 21.7 14.456 22 14.656 22.1C14.856 22.2 17.956 22.2 18.256 22.2C18.556 22.2 18.456 20.6 18.456 20.3C18.256 20 17.556 20.1 17.356 20.1ZM22.056 5.4C21.256 5.8 19.756 7 18.756 8.6C17.856 10.1 17.556 11.3 17.556 12.3C17.556 13.3 17.656 14 17.856 14.1C18.056 14.2 18.356 14.1 18.556 14.1C18.756 14.1 18.556 11.2 19.856 8.9C21.156 6.6 23.156 6 23.456 6C23.756 6 23.756 5.5 23.656 5.1C23.656 4.7 22.856 5 22.056 5.4ZM28.056 10.2C27.856 10.1 26.956 10.4 26.556 10.9C26.056 11.4 25.256 12.8 25.056 13.3C24.856 13.8 24.956 14.5 25.256 14.6C25.556 14.7 25.756 14.6 25.956 14.5C26.156 14.4 26.156 13.4 26.556 12.5C26.956 11.6 28.156 11.1 28.356 11C28.456 10.9 28.256 10.3 28.056 10.2ZM33.956 2.2C33.556 2.1 33.256 3 33.556 3.1C33.756 3.2 35.356 3.4 35.756 3.5C36.156 3.6 36.456 3.5 36.556 3.8C36.656 4.1 36.556 6.6 36.756 6.7C36.956 6.8 37.656 7.1 37.656 6.4C37.656 5.7 37.756 3 37.456 2.8C37.056 2.6 34.456 2.3 33.956 2.2ZM19.556 42.8C19.256 42.9 19.156 43.1 19.456 43.6C19.756 44.1 21.356 46 21.656 46C21.956 46 22.256 45.7 22.056 45.4C21.756 45 19.856 42.7 19.556 42.8ZM21.256 42C21.156 41.9 20.656 42.4 20.756 42.6C20.756 42.6 22.856 45.3 23.156 45.7C23.456 46.1 23.756 46.2 23.956 46C24.256 45.8 23.856 45.4 23.656 45C23.556 44.6 21.356 42 21.256 42Z" fill="black"/>
</g>
<defs>
<clipPath id="clip0_1_2">
<rect width="49.2" height="49.2" fill="white"/>
</clipPath>
</defs>
</svg>
