<svg width="50" height="50" viewBox="0 0 50 50" fill="none" xmlns="http://www.w3.org/2000/svg">
<g clip-path="url(#clip0_1_19)">
<path d="M49.007 24.862C48.907 19.362 48.707 11.462 48.407 10.262C48.107 9.06199 44.307 3.46199 43.007 2.26199C41.707 1.06199 39.307 0.461989 37.107 0.461989C34.907 0.361989 17.107 -0.338011 12.207 0.261989C7.30701 0.861989 5.40701 2.76199 4.10701 3.86199C3.00701 4.86199 1.60701 5.86199 1.00701 7.76199C0.407008 9.66199 0.307008 15.162 0.207008 20.962C0.107008 26.862 0.207008 33.462 0.207008 36.262C0.207008 39.062 1.50701 41.762 2.90701 43.562C4.30701 45.362 7.20701 47.262 8.90701 47.862C10.607 48.462 11.307 48.762 16.107 48.862C21.007 48.962 24.307 49.162 31.007 49.062C37.607 48.962 40.207 48.662 43.107 47.262C46.007 45.862 48.207 42.362 48.907 40.462C49.607 38.562 49.107 30.462 49.007 24.862ZM35.907 45.762C35.807 45.862 34.907 46.062 34.807 45.862C34.607 45.662 33.307 42.862 33.307 42.762C33.307 42.562 34.507 42.562 34.607 42.662C34.707 42.762 36.007 45.662 35.907 45.762ZM11.107 26.862C11.207 28.062 11.907 31.962 14.507 34.062C17.107 36.162 19.307 37.062 21.607 37.262C23.907 37.462 27.007 36.962 28.707 36.062C30.407 35.162 33.007 33.362 33.907 31.262C34.807 29.162 35.407 26.462 35.407 25.062C35.407 23.662 35.607 22.162 35.707 22.062C35.807 21.962 42.407 21.662 42.607 21.962C42.807 22.262 42.907 31.762 42.707 34.462C42.507 37.162 42.507 39.362 41.507 40.062C40.507 40.862 40.507 41.162 37.307 41.362C34.107 41.562 29.507 42.062 24.607 42.062C19.707 42.062 14.007 41.962 12.007 41.762C10.007 41.562 8.40701 40.962 8.20701 40.162C8.00701 39.362 7.80701 33.662 7.70701 30.162C7.60701 26.662 7.70701 23.062 7.90701 22.762C8.10701 22.562 11.307 21.662 11.407 21.762C11.307 21.962 11.007 25.662 11.107 26.862ZM36.807 45.562C36.607 45.462 35.407 42.562 35.407 42.562C35.407 42.462 36.507 42.462 36.607 42.462C36.707 42.462 38.307 44.962 38.207 45.062C38.107 45.162 36.907 45.662 36.807 45.562ZM39.907 44.662C39.707 44.862 39.107 44.962 39.007 44.962C38.907 44.962 37.707 42.462 37.607 42.362C37.507 42.262 38.607 42.262 38.707 42.362C39.007 42.562 40.107 44.562 39.907 44.662ZM40.707 44.262C40.507 44.162 39.707 42.462 39.607 42.362C39.607 42.262 40.507 41.862 40.607 41.962C40.807 42.062 41.607 43.562 41.607 43.562C41.607 43.562 40.907 44.262 40.707 44.262ZM42.307 42.862C42.107 42.762 41.507 41.562 41.407 41.462C41.407 41.362 42.307 40.762 42.307 40.762C42.307 40.762 43.107 41.562 43.107 41.662C43.107 41.762 42.507 42.962 42.307 42.862ZM43.607 40.762C43.407 40.862 42.807 39.862 42.807 39.762C42.807 39.662 42.907 38.462 43.107 38.462C43.207 38.462 44.207 39.562 44.307 39.662C44.407 39.762 43.807 40.762 43.607 40.762ZM45.307 26.562C45.107 31.862 45.207 34.462 45.107 36.062C44.907 37.662 44.607 38.562 44.507 38.562C44.407 38.562 43.407 37.162 43.407 36.962C43.407 36.762 43.507 32.662 43.607 29.462C43.707 26.262 43.707 20.862 43.607 19.862C43.507 18.862 43.207 18.462 42.607 18.262C42.007 18.062 37.707 18.062 35.507 18.062C33.307 18.062 32.707 18.062 32.507 18.262C32.407 18.462 32.307 19.462 32.407 19.862C32.507 20.262 32.807 21.062 32.807 21.162C32.807 21.262 33.007 26.362 31.907 28.362C30.907 30.362 29.907 32.462 26.307 33.762C22.707 35.062 21.007 35.362 17.807 34.262C14.607 33.162 13.307 31.062 12.807 29.662C12.307 28.262 12.007 24.862 12.207 22.762C12.407 20.662 12.507 20.262 12.907 19.862C13.207 19.462 13.607 19.262 13.507 18.962C13.407 18.662 13.107 18.562 12.007 18.262C10.907 17.962 8.00701 18.062 7.00701 17.962C6.00701 17.862 5.30701 18.062 5.00701 18.962C4.60701 19.962 5.30701 28.562 5.50701 32.662C5.70701 36.762 5.90701 38.962 6.90701 40.362C7.90701 41.762 8.70701 42.262 10.207 42.462C11.707 42.662 14.507 43.062 17.307 42.962C20.207 42.862 27.107 42.662 28.807 42.662C30.507 42.662 32.607 42.562 32.707 42.562C32.807 42.562 34.207 45.562 34.107 45.662C34.007 45.762 33.207 45.862 33.007 45.762C32.907 45.662 31.707 43.062 31.407 43.062C31.107 43.062 30.607 43.262 30.607 43.462C30.607 43.662 32.007 45.762 31.907 45.762C31.807 45.762 30.607 45.862 30.407 45.762C30.307 45.662 29.407 43.262 29.307 43.262C29.207 43.262 28.707 43.262 28.607 43.462C28.507 43.562 29.507 45.662 29.407 45.662C29.307 45.662 28.507 45.762 28.407 45.562C28.307 45.462 27.507 43.362 27.307 43.362C27.107 43.362 26.707 43.562 26.707 43.662C26.707 43.762 27.407 45.662 27.307 45.662C27.207 45.662 26.107 45.762 26.007 45.662C25.907 45.562 25.407 43.962 25.207 43.962C25.007 43.962 24.407 44.162 24.507 44.362C24.607 44.562 25.207 45.762 25.007 45.762C24.807 45.762 19.307 46.062 14.707 45.862C10.107 45.662 8.30701 46.062 6.60701 45.162C4.90701 44.262 2.60701 41.962 1.90701 40.162C1.20701 38.462 0.907008 33.762 1.10701 30.362C1.30701 26.962 0.907008 22.162 1.20701 17.462C1.50701 12.762 1.10701 6.86199 4.70701 4.36199C5.50701 3.76199 7.50701 2.36199 8.90701 1.96199C10.207 1.56199 12.407 1.06199 12.707 1.36199C13.007 1.66199 13.307 3.16199 13.607 3.16199C13.907 3.16199 14.407 3.06199 14.307 2.76199C14.207 2.46199 13.607 1.36199 13.807 1.36199C14.007 1.36199 14.407 1.26199 14.607 1.36199C14.707 1.46199 16.207 3.26199 16.607 4.36199C17.007 5.46199 17.007 5.46199 17.207 5.46199C17.407 5.46199 17.607 5.26199 17.607 4.96199C17.507 4.66199 17.007 3.06199 16.607 2.26199C16.107 1.46199 15.807 1.06199 16.007 1.06199C16.207 1.06199 16.607 0.761989 16.907 1.06199C17.207 1.36199 18.507 3.26199 19.007 4.16199C19.507 5.06199 19.407 5.36199 19.607 5.36199C19.807 5.36199 20.107 5.26199 20.007 4.76199C19.807 4.26199 19.307 3.06199 18.807 2.16199C18.307 1.26199 18.007 0.861989 18.107 0.861989C18.207 0.861989 19.407 0.761989 19.607 0.961989C19.807 1.16199 21.407 4.36199 22.007 5.56199C22.607 6.76199 22.907 7.76199 23.107 7.76199C23.307 7.76199 23.507 7.66199 23.407 7.46199C23.307 7.26199 21.607 3.56199 21.207 2.36199C20.807 1.16199 20.607 0.861989 20.807 0.861989C21.007 0.861989 21.707 0.661989 21.907 0.861989C22.107 1.06199 23.407 3.86199 24.407 5.76199C25.407 7.66199 26.207 9.26199 26.307 9.26199C26.407 9.26199 26.607 9.06199 26.507 8.76199C26.307 8.46199 24.507 4.16199 24.107 3.36199C23.707 2.56199 23.007 0.861989 23.207 0.861989C23.407 0.861989 24.207 0.761989 24.307 0.961989C24.407 1.16199 26.307 4.26199 27.107 6.36199C27.907 8.46199 28.107 9.06199 28.207 9.06199C28.307 9.06199 28.407 8.86199 28.407 8.76199C28.407 8.66199 27.207 5.26199 26.507 3.76199C25.807 2.26199 25.307 1.16199 25.507 1.16199C25.707 1.16199 26.707 1.06199 26.807 1.26199C26.907 1.46199 29.007 5.76199 29.507 6.86199C30.007 7.96199 30.307 8.66199 30.407 8.66199C30.507 8.66199 30.707 8.46199 30.607 8.06199C30.407 7.66199 28.907 3.36199 28.407 2.46199C27.907 1.56199 27.807 1.16199 28.007 1.16199C28.207 1.16199 28.807 1.06199 28.907 1.36199C29.007 1.66199 31.807 7.86199 31.907 7.86199C32.007 7.86199 32.207 7.76199 32.207 7.56199C32.207 7.36199 30.507 3.06199 30.207 2.26199C29.907 1.56199 29.807 1.16199 30.007 1.16199C30.207 1.16199 31.207 1.16199 31.207 1.26199C31.207 1.36199 33.107 5.56199 33.307 5.56199C33.507 5.56199 33.607 5.46199 33.607 5.16199C33.607 4.86199 32.407 2.06199 32.307 1.86199C32.207 1.56199 32.007 1.36199 32.207 1.26199C32.407 1.26199 33.607 1.36199 33.607 1.36199C33.607 1.36199 34.607 3.46199 34.807 3.46199C35.007 3.46199 35.507 3.16199 35.307 2.76199C35.107 2.36199 34.507 1.16199 34.707 1.16199C34.907 1.16199 35.507 1.06199 35.607 1.26199C35.707 1.46199 36.807 3.86199 37.107 3.86199C37.407 3.86199 37.607 3.66199 37.607 3.46199C37.507 3.26199 36.407 1.16199 36.507 1.16199C36.607 1.16199 37.607 1.06199 37.707 1.26199C37.907 1.46199 38.707 3.46199 39.107 3.46199C39.507 3.46199 39.707 3.06199 39.607 2.96199C39.507 2.76199 38.707 1.26199 38.907 1.26199C39.107 1.26199 39.407 1.16199 39.607 1.46199C39.807 1.76199 41.107 4.86199 41.207 4.86199C41.307 4.86199 41.807 4.46199 41.707 4.26199C41.607 4.06199 40.507 1.56199 40.707 1.46199C40.907 1.36199 41.507 1.46199 41.907 2.06199C42.307 2.66199 42.507 3.46199 42.707 3.46199C42.907 3.46199 43.307 3.16199 43.407 3.16199C43.507 3.16199 45.207 4.86199 45.307 7.96199C45.407 11.062 45.507 21.262 45.307 26.562ZM9.70701 3.96199C9.10701 3.96199 7.20701 4.66199 5.80701 5.66199C4.40701 6.66199 3.40701 8.66199 3.30701 9.36199C3.20701 10.062 3.30701 11.762 3.40701 11.862C3.60701 12.062 4.10701 11.962 4.30701 11.862C4.50701 11.762 4.40701 11.062 4.30701 10.462C4.20701 9.76199 4.70701 8.66199 5.40701 7.76199C6.10701 6.86199 7.60701 5.66199 8.40701 5.36199C9.20701 5.06199 10.007 4.96199 10.207 4.76199C10.407 4.56199 10.307 4.06199 9.70701 3.96199ZM32.307 13.562C32.007 13.462 32.207 11.562 32.107 11.362C32.007 11.162 31.007 11.062 31.007 11.262C31.007 11.462 30.807 14.262 31.007 14.562C31.207 14.862 32.907 14.962 33.307 14.962C33.707 14.962 33.607 14.362 33.507 14.062C33.507 13.662 32.607 13.662 32.307 13.562ZM39.007 5.26199C38.407 5.16199 34.207 5.26199 33.707 5.46199C33.207 5.66199 33.207 7.06199 33.307 8.36199C33.407 9.66199 33.407 12.462 33.607 12.662C34.107 13.262 39.307 13.062 40.007 12.862C40.707 12.662 40.407 8.26199 40.307 7.16199C40.207 6.06199 39.607 5.36199 39.007 5.26199ZM39.107 11.662C38.807 11.662 35.707 11.762 35.507 11.562C35.307 11.362 35.407 8.16199 35.507 7.86199C35.607 7.66199 39.107 7.56199 39.307 7.76199C39.507 7.96199 39.407 11.662 39.107 11.662ZM20.107 15.962C20.607 15.862 20.407 15.162 20.107 15.062C19.807 14.962 18.707 15.262 17.407 16.162C16.007 17.062 15.107 18.362 14.907 18.962C14.707 19.562 14.807 20.362 15.007 20.462C15.007 20.462 15.507 20.562 15.807 20.562C16.107 20.562 16.107 19.062 17.007 17.962C17.807 16.762 19.607 16.062 20.107 15.962ZM22.607 16.262C19.807 16.062 17.907 17.962 17.307 18.662C15.707 20.662 15.707 25.062 16.307 26.962C16.907 28.862 20.107 30.362 21.307 30.562C22.507 30.862 27.107 29.962 28.407 27.762C29.707 25.562 29.307 22.162 28.607 19.962C27.907 17.762 25.407 16.562 22.607 16.262ZM27.607 27.362C26.407 28.562 24.307 29.762 22.107 29.662C19.907 29.562 17.907 28.462 18.207 25.962C18.507 23.462 19.607 22.562 20.707 21.462C21.407 20.762 23.307 19.562 24.807 19.562C26.307 19.562 27.107 19.462 27.807 21.062C28.507 22.662 28.707 26.162 27.607 27.362Z" fill="black"/>
</g>
<defs>
<clipPath id="clip0_1_19">
<rect width="49.111" height="49.111" fill="white" transform="translate(0.16301)"/>
</clipPath>
</defs>
</svg>
