<svg width="51" height="50" viewBox="0 0 51 50" fill="none" xmlns="http://www.w3.org/2000/svg">
<g clip-path="url(#clip0_1_36)">
<path d="M40.793 26.138C40.693 25.838 41.093 25.838 41.993 24.838C42.893 23.938 45.893 20.138 48.193 17.238C50.493 14.338 50.193 12.438 50.093 10.738C49.993 8.93801 48.993 8.13801 47.993 7.73801C46.993 7.33801 42.093 7.53801 41.293 7.63801C40.493 7.73801 40.093 8.13801 39.593 8.83801C39.093 9.53801 36.293 13.938 35.093 15.338C33.993 16.738 31.593 18.938 31.393 18.838C31.193 18.738 31.193 13.038 31.093 11.738C30.893 10.438 28.393 9.23801 26.793 9.13801C25.193 9.03801 18.393 9.33801 17.593 9.53801C16.793 9.73801 16.293 10.538 16.393 10.838C16.493 11.138 17.893 12.538 18.293 13.038C18.693 13.538 19.093 18.438 19.093 20.538C19.093 22.538 18.293 23.438 17.993 23.338C17.693 23.238 16.393 22.738 14.893 20.938C13.293 19.138 9.29302 10.738 9.09302 10.538C8.89302 10.238 8.19302 10.138 5.89302 10.038C3.59302 9.93801 1.29302 10.238 0.893016 10.938C-0.306984 12.938 0.293016 17.038 0.893016 18.838C1.49302 20.638 2.59302 23.738 4.79302 27.138C6.99302 30.638 10.393 34.238 13.693 37.438C16.993 40.638 19.393 41.638 20.793 42.138C22.193 42.638 24.793 42.438 26.993 42.338C29.193 42.238 30.093 41.338 30.493 40.238C30.993 39.138 30.893 36.338 30.793 36.038C30.693 35.738 30.693 34.538 31.193 34.438C31.693 34.438 32.093 35.038 32.893 35.938C33.693 36.838 34.993 40.438 35.493 40.838C36.093 41.238 37.193 41.538 39.093 41.538C40.993 41.538 44.993 41.438 45.793 41.138C46.593 40.838 48.293 38.838 48.593 37.538C48.893 36.238 47.893 34.938 46.993 33.238C45.893 31.438 40.893 26.338 40.793 26.138ZM47.193 37.538C47.093 37.338 43.493 32.938 42.293 31.338C41.093 29.738 40.493 29.138 40.193 29.338C39.793 29.538 39.993 29.938 40.193 30.138C40.393 30.338 46.593 37.738 46.493 37.838C46.393 37.938 45.293 38.238 45.193 38.038C45.093 37.838 42.793 34.438 41.193 32.738C39.693 30.938 38.693 30.138 38.393 30.238C38.093 30.338 37.993 30.838 38.293 31.138C38.593 31.438 40.593 32.938 41.893 34.738C43.193 36.538 44.493 38.038 44.293 38.138C44.093 38.338 42.893 38.238 42.893 38.238C42.793 38.138 40.193 34.738 38.893 33.338C37.593 31.938 37.393 31.838 36.993 31.938C36.593 32.138 37.393 32.838 37.993 33.438C38.593 34.038 41.593 37.638 41.793 37.838C41.993 38.038 42.093 38.438 41.893 38.438C41.693 38.438 40.493 38.438 40.393 38.338C40.293 38.238 36.193 32.338 35.793 32.338C35.393 32.238 35.193 32.538 35.293 32.738C35.393 32.938 39.593 38.138 39.293 38.238C38.993 38.338 38.293 38.338 38.093 38.038C37.793 37.838 35.293 34.038 33.693 32.738C32.093 31.438 31.093 31.038 30.293 31.038C29.493 31.038 28.993 31.738 28.993 31.738C28.993 31.738 26.693 29.038 26.393 29.138C25.993 29.238 25.993 29.538 26.193 29.838C26.393 30.138 28.493 32.138 28.493 32.338C28.493 32.438 28.293 33.738 28.293 33.838C28.293 33.938 25.293 30.638 25.093 30.638C24.893 30.738 24.693 31.338 24.793 31.538C24.893 31.738 28.593 34.738 28.593 35.038C28.693 35.338 28.793 37.238 28.593 37.038C28.393 36.838 24.593 32.338 24.393 32.338C24.193 32.338 23.793 32.938 23.893 33.138C24.093 33.338 28.493 37.638 28.393 37.838C28.393 38.038 27.993 38.338 27.693 38.238C27.393 38.138 23.493 33.538 23.093 33.638C22.693 33.838 22.393 34.038 22.693 34.338C22.993 34.638 26.793 38.238 26.693 38.438C26.593 38.638 25.493 38.538 25.293 38.438C25.093 38.338 21.993 34.238 21.393 34.438C20.893 34.538 20.793 35.038 20.993 35.238C21.193 35.538 24.493 38.438 24.293 38.538C24.093 38.638 23.093 38.638 22.893 38.538C22.593 38.438 19.993 35.338 19.593 35.238C19.293 35.138 18.993 35.638 19.093 35.838C19.193 36.038 21.293 38.038 21.193 38.238C21.093 38.438 18.293 37.538 16.893 36.438C15.493 35.338 12.093 32.138 9.89302 29.138C7.69302 26.138 6.39302 24.538 4.39302 20.638C2.39302 16.738 0.693016 12.338 1.69302 11.238C1.99302 10.838 2.69302 10.638 3.59302 10.638C4.49302 10.638 7.89302 10.538 8.09302 10.838C8.29302 11.138 11.093 17.438 12.693 19.738C14.293 22.038 15.793 23.538 16.693 23.938C17.693 24.338 18.993 23.938 19.493 22.738C19.993 21.538 19.993 19.538 19.793 17.938C19.593 16.338 19.793 13.638 19.093 12.538C18.393 11.438 17.793 10.638 17.793 10.538C17.893 10.338 21.393 10.138 23.793 10.038C26.193 9.93801 27.993 9.73801 28.093 11.038C28.193 12.338 28.193 14.138 28.093 16.938C27.993 19.638 28.093 20.338 28.993 20.738C29.893 21.138 31.093 20.638 33.093 18.838C35.093 17.038 37.093 14.238 38.393 12.238C39.693 10.238 40.793 8.83801 40.893 8.73801C41.093 8.63801 45.293 8.33801 45.693 8.63801C46.093 8.93801 47.393 10.638 47.593 10.738C47.793 10.938 47.793 11.138 47.793 11.238C47.793 11.338 47.493 12.138 47.293 11.938C47.093 11.738 45.593 10.138 45.293 10.238C44.993 10.338 44.893 10.538 45.093 10.938C45.393 11.238 46.993 12.538 46.893 12.738C46.893 12.938 46.293 13.838 46.193 13.738C46.093 13.638 44.293 11.338 43.993 11.438C43.793 11.538 43.393 12.038 43.693 12.238C43.893 12.538 45.593 14.238 45.593 14.438C45.593 14.638 44.993 15.538 44.893 15.438C44.793 15.338 42.893 13.338 42.693 13.438C42.493 13.538 42.193 13.738 42.393 14.038C42.593 14.338 44.593 15.938 44.493 16.238C44.393 16.538 43.793 17.638 43.693 17.538C43.493 17.438 41.393 14.838 41.193 15.038C40.993 15.238 40.693 15.438 40.893 15.638C41.093 15.838 43.093 18.138 43.093 18.238C43.093 18.338 42.593 19.038 42.493 19.038C42.393 19.038 40.493 16.738 40.293 16.838C40.093 16.938 39.693 17.238 39.793 17.438C39.893 17.638 41.893 19.538 41.593 19.938C41.293 20.338 41.093 20.638 40.893 20.638C40.693 20.638 38.693 18.138 38.493 18.238C38.293 18.338 37.893 18.538 37.993 18.838C38.093 19.138 40.393 21.238 40.293 21.438C40.193 21.638 39.593 22.138 39.393 22.038C39.193 21.938 37.393 19.838 37.093 19.938C36.793 20.038 36.593 20.038 36.593 20.338C36.593 20.638 38.593 22.438 38.493 22.638C38.293 22.838 37.293 23.338 36.893 23.738C36.493 24.138 36.493 24.438 36.793 24.638C37.093 24.838 41.193 28.138 43.493 31.138C45.793 34.138 46.393 35.338 46.693 36.138C47.293 36.838 47.293 37.738 47.193 37.538ZM5.89302 12.238C5.59302 12.038 2.99302 12.038 2.89302 12.338C2.79302 12.638 3.79302 15.838 4.09302 16.038C4.49302 16.238 4.79302 15.938 4.89302 15.738C4.99302 15.538 4.19302 13.338 4.29302 13.138C4.29302 12.938 5.69302 13.038 5.89302 13.038C6.09302 12.938 6.19302 12.438 5.89302 12.238ZM22.693 11.238C22.593 11.438 22.693 11.938 22.993 12.038C23.293 12.138 25.393 12.238 25.593 12.338C25.793 12.438 25.793 13.538 25.793 13.938C25.893 14.338 26.493 14.138 26.693 13.938C26.893 13.738 26.793 11.538 26.693 11.338C26.593 11.138 22.793 11.138 22.693 11.238Z" fill="black"/>
</g>
<defs>
<clipPath id="clip0_1_36">
<rect width="49.963" height="49.963" fill="white" transform="translate(0.200012)"/>
</clipPath>
</defs>
</svg>
